{"accessors":[{"bufferView":0,"byteOffset":0,"componentType":5126,"count":1188,"max":[762359.5000002636,376137.4999999404,51719.99999972555],"min":[762306.0429537548,376097.4999999404,51693.12400027487],"type":"VEC3"},{"bufferView":0,"byteOffset":14256,"componentType":5126,"count":1188,"max":[1.0,1.0,1.0],"min":[-1.000030517578125,-1.000030517578125,-1.000030517578125],"type":"VEC3"},{"bufferView":1,"byteOffset":0,"componentType":5123,"count":3192,"max":[1187],"min":[0],"type":"SCALAR"},{"bufferView":0,"byteOffset":28512,"componentType":5126,"count":1188,"max":[762359.5000002636,377337.4999999404,51719.99999972555],"min":[762306.0429537548,377297.4999999404,51693.12400027487],"type":"VEC3"},{"bufferView":0,"byteOffset":42768,"componentType":5126,"count":1188,"max":[1.0,1.0,1.0],"min":[-1.000030517578125,-1.000030517578125,-1.000030517578125],"type":"VEC3"},{"bufferView":1,"byteOffset":6384,"componentType":5123,"count":3192,"max":[1187],"min":[0],"type":"SCALAR"},{"bufferView":0,"byteOffset":57024,"componentType":5126,"count":1188,"max":[762359.5000002636,378537.4999999404,51719.99999972555],"min":[762306.0429537548,378497.4999999404,51693.12400027487],"type":"VEC3"},{"bufferView":0,"byteOffset":71280,"componentType":5126,"count":1188,"max":[1.0,1.0,1.0],"min":[-1.000030517578125,-1.000030517578125,-1.000030517578125],"type":"VEC3"},{"bufferView":1,"byteOffset":12768,"componentType":5123,"count":3192,"max":[1187],"min":[0],"type":"SCALAR"},{"bufferView":0,"byteOffset":85536,"componentType":5126,"count":1188,"max":[762359.5000002636,379737.4999999404,51719.99999972555],"min":[762306.0429537548,379697.4999999404,51693.12400027487],"type":"VEC3"},{"bufferView":0,"byteOffset":99792,"componentType":5126,"count":1188,"max":[1.0,1.0,1.0],"min":[-1.000030517578125,-1.000030517578125,-1.000030517578125],"type":"VEC3"},{"bufferView":1,"byteOffset":19152,"componentType":5123,"count":3192,"max":[1187],"min":[0],"type":"SCALAR"},{"bufferView":0,"byteOffset":114048,"componentType":5126,"count":576,"max":[762346.2399996185,380176.11907971627,51720.30293627933],"min":[762322.4400003814,380130.61907971627,51692.82106372074],"type":"VEC3"},{"bufferView":0,"byteOffset":120960,"componentType":5126,"count":576,"max":[1.0,1.0,0.9609668254852295],"min":[-1.000030517578125,-1.000030517578125,-0.9687795639038086],"type":"VEC3"},{"bufferView":1,"byteOffset":25536,"componentType":5123,"count":1800,"max":[575],"min":[0],"type":"SCALAR"},{"bufferView":0,"byteOffset":127872,"componentType":5126,"count":324,"max":[762349.9164627456,380188.21907990705,51720.24451800538],"min":[762318.7635372543,380162.6190795256,51692.879481994634],"type":"VEC3"},{"bufferView":0,"byteOffset":131760,"componentType":5126,"count":324,"max":[0.9687795639038086,1.0,0.9922177791595459],"min":[-0.9765923023223877,-1.000030517578125,-1.000030517578125],"type":"VEC3"},{"bufferView":1,"byteOffset":29136,"componentType":5123,"count":906,"max":[323],"min":[0],"type":"SCALAR"},{"bufferView":0,"byteOffset":135648,"componentType":5126,"count":4567,"max":[762356.7547178227,379984.7388912946,51728.97671865969],"min":[762248.8352765995,379742.2704922467,51621.030711884785],"type":"VEC3"},{"bufferView":0,"byteOffset":190452,"componentType":5126,"count":4567,"max":[0.9844050407409668,1.0,0.9844050407409668],"min":[-1.000030517578125,-1.000030517578125,-1.000030517578125],"type":"VEC3"},{"bufferView":1,"byteOffset":30948,"componentType":5123,"count":16488,"max":[4566],"min":[0],"type":"SCALAR"},{"bufferView":0,"byteOffset":245256,"componentType":5126,"count":3489,"max":[762362.4826510584,376772.02234524215,51821.165508550155],"min":[762256.7293093835,376568.97702663863,51628.97678784703],"type":"VEC3"},{"bufferView":0,"byteOffset":287124,"componentType":5126,"count":3489,"max":[1.0,1.0,1.0],"min":[-1.000030517578125,-1.000030517578125,-1.000030517578125],"type":"VEC3"},{"bufferView":1,"byteOffset":63924,"componentType":5123,"count":12186,"max":[3488],"min":[0],"type":"SCALAR"},{"bufferView":0,"byteOffset":328992,"componentType":5126,"count":3489,"max":[762362.4826510584,377725.06765924214,51821.165508550155],"min":[762256.7293093835,377522.0223406386,51628.97678784703],"type":"VEC3"},{"bufferView":0,"byteOffset":370860,"componentType":5126,"count":3489,"max":[1.0,1.0,1.0],"min":[-1.000030517578125,-1.000030517578125,-1.000030517578125],"type":"VEC3"},{"bufferView":1,"byteOffset":88296,"componentType":5123,"count":12186,"max":[3488],"min":[0],"type":"SCALAR"},{"bufferView":0,"byteOffset":412728,"componentType":5126,"count":3489,"max":[762362.4826510584,378272.02234524215,51821.165508550155],"min":[762256.7293093835,378068.97702663863,51628.97678784703],"type":"VEC3"},{"bufferView":0,"byteOffset":454596,"componentType":5126,"count":3489,"max":[1.0,1.0,1.0],"min":[-1.000030517578125,-1.000030517578125,-1.000030517578125],"type":"VEC3"},{"bufferView":1,"byteOffset":112668,"componentType":5123,"count":12186,"max":[3488],"min":[0],"type":"SCALAR"},{"bufferView":0,"byteOffset":496464,"componentType":5126,"count":3489,"max":[762362.4826510584,379225.06765924214,51821.165508550155],"min":[762256.7293093835,379022.0223406386,51628.97678784703],"type":"VEC3"},{"bufferView":0,"byteOffset":538332,"componentType":5126,"count":3489,"max":[1.0,1.0,1.0],"min":[-1.000030517578125,-1.000030517578125,-1.000030517578125],"type":"VEC3"},{"bufferView":1,"byteOffset":137040,"componentType":5123,"count":12186,"max":[3488],"min":[0],"type":"SCALAR"},{"bufferView":0,"byteOffset":580200,"componentType":5126,"count":48,"max":[762340.6899999045,380130.6190781018,51712.911999904725],"min":[762327.9900000952,379984.738493385,51700.21200009546],"type":"VEC3"},{"bufferView":0,"byteOffset":580776,"componentType":5126,"count":48,"max":[0.9609668254852295,1.0,0.9609668254852295],"min":[-0.9687795639038086,-1.000030517578125,-0.9687795639038086],"type":"VEC3"},{"bufferView":1,"byteOffset":161412,"componentType":5123,"count":132,"max":[47],"min":[0],"type":"SCALAR"},{"bufferView":0,"byteOffset":581352,"componentType":5126,"count":48,"max":[762340.6899999045,379742.2704842676,51712.911999904725],"min":[762327.9900000952,379225.0676644434,51700.21200009546],"type":"VEC3"},{"bufferView":0,"byteOffset":581928,"componentType":5126,"count":48,"max":[0.9609668254852295,1.0,0.9609668254852295],"min":[-0.9687795639038086,-1.000030517578125,-0.9687795639038086],"type":"VEC3"},{"bufferView":1,"byteOffset":161676,"componentType":5123,"count":132,"max":[47],"min":[0],"type":"SCALAR"},{"bufferView":0,"byteOffset":582504,"componentType":5126,"count":48,"max":[762340.6899999046,379022.0226525283,51712.91199990464],"min":[762327.9900000953,378272.0223473525,51700.21200009537],"type":"VEC3"},{"bufferView":0,"byteOffset":583080,"componentType":5126,"count":48,"max":[0.9609668254852295,1.0,0.9609668254852295],"min":[-0.9687795639038086,-1.000030517578125,-0.9687795639038086],"type":"VEC3"},{"bufferView":1,"byteOffset":161940,"componentType":5123,"count":132,"max":[47],"min":[0],"type":"SCALAR"},{"bufferView":0,"byteOffset":583656,"componentType":5126,"count":48,"max":[762340.6899999046,378068.9773491836,51712.91199990464],"min":[762327.9900000953,377725.06765069725,51700.21200009537],"type":"VEC3"},{"bufferView":0,"byteOffset":584232,"componentType":5126,"count":48,"max":[0.9609668254852295,1.0,0.9609668254852295],"min":[-0.9687795639038086,-1.000030517578125,-0.9687795639038086],"type":"VEC3"},{"bufferView":1,"byteOffset":162204,"componentType":5123,"count":132,"max":[47],"min":[0],"type":"SCALAR"},{"bufferView":0,"byteOffset":584808,"componentType":5126,"count":48,"max":[762340.6899999046,377522.0226525283,51712.91199990464],"min":[762327.9900000953,376772.0223473525,51700.21200009537],"type":"VEC3"},{"bufferView":0,"byteOffset":585384,"componentType":5126,"count":48,"max":[0.9609668254852295,1.0,0.9609668254852295],"min":[-0.9687795639038086,-1.000030517578125,-0.9687795639038086],"type":"VEC3"},{"bufferView":1,"byteOffset":162468,"componentType":5123,"count":132,"max":[47],"min":[0],"type":"SCALAR"},{"bufferView":0,"byteOffset":585960,"componentType":5126,"count":48,"max":[762340.6899999046,376568.97735148534,51712.91199990464],"min":[762327.9900000953,375972.5223343955,51700.21200009537],"type":"VEC3"},{"bufferView":0,"byteOffset":586536,"componentType":5126,"count":48,"max":[0.9609668254852295,1.0,0.9609668254852295],"min":[-0.9687795639038086,-1.000030517578125,-0.9687795639038086],"type":"VEC3"},{"bufferView":1,"byteOffset":162732,"componentType":5123,"count":132,"max":[47],"min":[0],"type":"SCALAR"}],"asset":{"generator":"ClayGL - fbx2gltf","version":"2.0"},"bufferViews":[{"buffer":0,"byteLength":587112,"byteOffset":0,"target":34962},{"buffer":0,"byteLength":162996,"byteOffset":587112,"target":34963}],"buffers":[{"byteLength":750108,"uri":"0001.bin"}],"cameras":[{"perspective":{"yfov":25.114999771118164,"zfar":4904.22836152847,"znear":3831.3098372135255},"type":"perspective"}],"materials":[{"emissiveFactor":[0.0,0.0,0.0],"name":"AutoCAD Color Index 140","pbrMetallicRoughness":{"baseColorFactor":[0.0,0.75,1.0,1],"metallicFactor":0,"roughnessFactor":1}},{"emissiveFactor":[0.0,0.0,0.0],"name":"AutoCAD Color Index 140","pbrMetallicRoughness":{"baseColorFactor":[0.0,0.75,1.0,1],"metallicFactor":0,"roughnessFactor":1}},{"emissiveFactor":[0.0,0.0,0.0],"name":"AutoCAD Color Index 140","pbrMetallicRoughness":{"baseColorFactor":[0.0,0.75,1.0,1],"metallicFactor":0,"roughnessFactor":1}},{"emissiveFactor":[0.0,0.0,0.0],"name":"AutoCAD Color Index 140","pbrMetallicRoughness":{"baseColorFactor":[0.0,0.75,1.0,1],"metallicFactor":0,"roughnessFactor":1}},{"emissiveFactor":[0.0,0.0,0.0],"name":"AutoCAD Color Index 140","pbrMetallicRoughness":{"baseColorFactor":[0.0,0.75,1.0,1],"metallicFactor":0,"roughnessFactor":1}},{"emissiveFactor":[0.0,0.0,0.0],"name":"AutoCAD Color Index 140","pbrMetallicRoughness":{"baseColorFactor":[0.0,0.75,1.0,1],"metallicFactor":0,"roughnessFactor":1}},{"emissiveFactor":[0.0,0.0,0.0],"name":"AutoCAD Color Index 140","pbrMetallicRoughness":{"baseColorFactor":[0.0,0.75,1.0,1],"metallicFactor":0,"roughnessFactor":1}},{"emissiveFactor":[0.0,0.0,0.0],"name":"AutoCAD Color Index 140","pbrMetallicRoughness":{"baseColorFactor":[0.0,0.75,1.0,1],"metallicFactor":0,"roughnessFactor":1}},{"emissiveFactor":[0.0,0.0,0.0],"name":"AutoCAD Color Index 140","pbrMetallicRoughness":{"baseColorFactor":[0.0,0.75,1.0,1],"metallicFactor":0,"roughnessFactor":1}},{"emissiveFactor":[0.0,0.0,0.0],"name":"AutoCAD Color Index 140","pbrMetallicRoughness":{"baseColorFactor":[0.0,0.75,1.0,1],"metallicFactor":0,"roughnessFactor":1}},{"emissiveFactor":[0.0,0.0,0.0],"name":"AutoCAD Color Index 140","pbrMetallicRoughness":{"baseColorFactor":[0.0,0.75,1.0,1],"metallicFactor":0,"roughnessFactor":1}},{"emissiveFactor":[0.0,0.0,0.0],"name":"AutoCAD Color Index 140","pbrMetallicRoughness":{"baseColorFactor":[0.0,0.75,1.0,1],"metallicFactor":0,"roughnessFactor":1}},{"emissiveFactor":[0.0,0.0,0.0],"name":"AutoCAD Color Index 140","pbrMetallicRoughness":{"baseColorFactor":[0.0,0.75,1.0,1],"metallicFactor":0,"roughnessFactor":1}},{"emissiveFactor":[0.0,0.0,0.0],"name":"AutoCAD Color Index 140","pbrMetallicRoughness":{"baseColorFactor":[0.0,0.75,1.0,1],"metallicFactor":0,"roughnessFactor":1}},{"emissiveFactor":[0.0,0.0,0.0],"name":"AutoCAD Color Index 140","pbrMetallicRoughness":{"baseColorFactor":[0.0,0.75,1.0,1],"metallicFactor":0,"roughnessFactor":1}},{"emissiveFactor":[0.0,0.0,0.0],"name":"AutoCAD Color Index 140","pbrMetallicRoughness":{"baseColorFactor":[0.0,0.75,1.0,1],"metallicFactor":0,"roughnessFactor":1}},{"emissiveFactor":[0.0,0.0,0.0],"name":"AutoCAD Color Index 140","pbrMetallicRoughness":{"baseColorFactor":[0.0,0.75,1.0,1],"metallicFactor":0,"roughnessFactor":1}}],"meshes":[{"name":"NO CODE","primitives":[{"attributes":{"NORMAL":1,"POSITION":0},"indices":2,"material":0}]},{"name":"NO CODE","primitives":[{"attributes":{"NORMAL":4,"POSITION":3},"indices":5,"material":1}]},{"name":"NO CODE","primitives":[{"attributes":{"NORMAL":7,"POSITION":6},"indices":8,"material":2}]},{"name":"NO CODE","primitives":[{"attributes":{"NORMAL":10,"POSITION":9},"indices":11,"material":3}]},{"name":"1009870 $1009888","primitives":[{"attributes":{"NORMAL":13,"POSITION":12},"indices":14,"material":4}]},{"name":"1009847","primitives":[{"attributes":{"NORMAL":16,"POSITION":15},"indices":17,"material":5}]},{"name":"1059869","primitives":[{"attributes":{"NORMAL":19,"POSITION":18},"indices":20,"material":6}]},{"name":"1035558","primitives":[{"attributes":{"NORMAL":22,"POSITION":21},"indices":23,"material":7}]},{"name":"1035558","primitives":[{"attributes":{"NORMAL":25,"POSITION":24},"indices":26,"material":8}]},{"name":"1035558","primitives":[{"attributes":{"NORMAL":28,"POSITION":27},"indices":29,"material":9}]},{"name":"1035558","primitives":[{"attributes":{"NORMAL":31,"POSITION":30},"indices":32,"material":10}]},{"name":"1032524","primitives":[{"attributes":{"NORMAL":34,"POSITION":33},"indices":35,"material":11}]},{"name":"1032524","primitives":[{"attributes":{"NORMAL":37,"POSITION":36},"indices":38,"material":12}]},{"name":"1032524","primitives":[{"attributes":{"NORMAL":40,"POSITION":39},"indices":41,"material":13}]},{"name":"1032524","primitives":[{"attributes":{"NORMAL":43,"POSITION":42},"indices":44,"material":14}]},{"name":"1032524","primitives":[{"attributes":{"NORMAL":46,"POSITION":45},"indices":47,"material":15}]},{"name":"1032524","primitives":[{"attributes":{"NORMAL":49,"POSITION":48},"indices":50,"material":16}]}],"nodes":[{"camera":0,"matrix":[-1.0,1.2246467991473532e-16,0.0,0.0,-7.498798913309288e-33,-6.123233995736766e-17,1.0,0.0,1.2246467991473532e-16,1.0,6.123233995736766e-17,0.0,-765308.8300345725,54457.12096765586,376372.2463470326,1.0],"name":"Default Camera"},{"matrix":[-1.0,1.2246467991473532e-16,0.0,0.0,-7.498798913309288e-33,-6.123233995736766e-17,1.0,0.0,1.2246467991473532e-16,1.0,6.123233995736766e-17,0.0,-761793.3577141906,51392.14314332232,377493.8986291308,1.0],"name":"Default Camera marker"},{"matrix":[-1.0,1.2246467991473532e-16,0.0,0.0,-7.498798913309288e-33,-6.123233995736766e-17,1.0,0.0,1.2246467991473532e-16,1.0,6.123233995736766e-17,0.0,-765308.221324327,54457.89022180973,376372.44056310767,1.0],"name":"Default Camera up"},{"matrix":[-1.0,1.2246467991473532e-16,0.0,0.0,-7.498798913309288e-33,-6.123233995736766e-17,1.0,0.0,1.2246467991473532e-16,1.0,6.123233995736766e-17,0.0,0.0,0.0,0.0,1.0],"name":"Environment"},{"matrix":[-1.0,1.2246467991473532e-16,0.0,0.0,-7.498798913309288e-33,-6.123233995736766e-17,1.0,0.0,1.2246467991473532e-16,1.0,6.123233995736766e-17,0.0,0.0,0.0,0.0,1.0],"name":""},{"children":[6,8,10,12,14,16,18,19,20,21],"matrix":[-1.0,1.2246467991473532e-16,0.0,0.0,-7.498798913309288e-33,-6.123233995736766e-17,1.0,0.0,1.2246467991473532e-16,1.0,6.123233995736766e-17,0.0,0.0,0.0,0.0,1.0],"name":"Cl"},{"children":[7],"matrix":[1.0,0.0,0.0,0.0,0.0,1.0,0.0,0.0,0.0,0.0,1.0,0.0,0.0,0.0,0.0,1.0],"name":"*A11"},{"matrix":[1.0,0.0,0.0,0.0,0.0,1.0,0.0,0.0,0.0,0.0,1.0,0.0,0.0,0.0,0.0,1.0],"name":"1032524"},{"children":[9],"matrix":[1.0,0.0,0.0,0.0,0.0,1.0,0.0,0.0,0.0,0.0,1.0,0.0,0.0,0.0,0.0,1.0],"name":"*A13"},{"matrix":[1.0,0.0,0.0,0.0,0.0,1.0,0.0,0.0,0.0,0.0,1.0,0.0,0.0,0.0,0.0,1.0],"name":"1032524"},{"children":[11],"matrix":[1.0,0.0,0.0,0.0,0.0,1.0,0.0,0.0,0.0,0.0,1.0,0.0,0.0,0.0,0.0,1.0],"name":"*A14"},{"matrix":[1.0,0.0,0.0,0.0,0.0,1.0,0.0,0.0,0.0,0.0,1.0,0.0,0.0,0.0,0.0,1.0],"name":"1032524"},{"children":[13],"matrix":[1.0,0.0,0.0,0.0,0.0,1.0,0.0,0.0,0.0,0.0,1.0,0.0,0.0,0.0,0.0,1.0],"name":"*A15"},{"matrix":[1.0,0.0,0.0,0.0,0.0,1.0,0.0,0.0,0.0,0.0,1.0,0.0,0.0,0.0,0.0,1.0],"name":"1032524"},{"children":[15],"matrix":[1.0,0.0,0.0,0.0,0.0,1.0,0.0,0.0,0.0,0.0,1.0,0.0,0.0,0.0,0.0,1.0],"name":"*A16"},{"matrix":[1.0,0.0,0.0,0.0,0.0,1.0,0.0,0.0,0.0,0.0,1.0,0.0,0.0,0.0,0.0,1.0],"name":"1032524"},{"children":[17],"matrix":[1.0,0.0,0.0,0.0,0.0,1.0,0.0,0.0,0.0,0.0,1.0,0.0,0.0,0.0,0.0,1.0],"name":"*A17"},{"matrix":[1.0,0.0,0.0,0.0,0.0,1.0,0.0,0.0,0.0,0.0,1.0,0.0,0.0,0.0,0.0,1.0],"name":"1032524"},{"matrix":[1.0,0.0,0.0,0.0,0.0,1.0,0.0,0.0,0.0,0.0,1.0,0.0,0.0,0.0,0.0,1.0],"name":""},{"matrix":[1.0,0.0,0.0,0.0,0.0,1.0,0.0,0.0,0.0,0.0,1.0,0.0,0.0,0.0,0.0,1.0],"name":""},{"matrix":[1.0,0.0,0.0,0.0,0.0,1.0,0.0,0.0,0.0,0.0,1.0,0.0,0.0,0.0,0.0,1.0],"name":""},{"matrix":[1.0,0.0,0.0,0.0,0.0,1.0,0.0,0.0,0.0,0.0,1.0,0.0,0.0,0.0,0.0,1.0],"name":""},{"matrix":[-1.0,1.2246467991473532e-16,0.0,0.0,-7.498798913309288e-33,-6.123233995736766e-17,1.0,0.0,1.2246467991473532e-16,1.0,6.123233995736766e-17,0.0,0.0,0.0,0.0,1.0],"name":""},{"children":[24,25,26,28,30,32,34,35,37,38,40,42,43,44,45,49,53,57,61,63,65,67,69,71,73,74,75,76,77],"matrix":[-1.0,1.2246467991473532e-16,0.0,0.0,-7.498798913309288e-33,-6.123233995736766e-17,1.0,0.0,1.2246467991473532e-16,1.0,6.123233995736766e-17,0.0,0.0,0.0,0.0,1.0],"name":"MPRSGH2N2"},{"matrix":[1.0,0.0,0.0,0.0,0.0,1.0,0.0,0.0,0.0,0.0,1.0,0.0,0.0,0.0,0.0,1.0],"name":""},{"matrix":[1.0,0.0,0.0,0.0,0.0,1.0,0.0,0.0,0.0,0.0,1.0,0.0,0.0,0.0,0.0,1.0],"name":""},{"children":[27],"matrix":[1.0,0.0,0.0,0.0,0.0,1.0,0.0,0.0,0.0,0.0,1.0,0.0,0.0,0.0,0.0,1.0],"name":"*A23"},{"matrix":[1.0,0.0,0.0,0.0,0.0,1.0,0.0,0.0,0.0,0.0,1.0,0.0,0.0,0.0,0.0,1.0],"mesh":0,"name":"NO CODE"},{"children":[29],"matrix":[1.0,0.0,0.0,0.0,0.0,1.0,0.0,0.0,0.0,0.0,1.0,0.0,0.0,0.0,0.0,1.0],"name":"*A25"},{"matrix":[1.0,0.0,0.0,0.0,0.0,1.0,0.0,0.0,0.0,0.0,1.0,0.0,0.0,0.0,0.0,1.0],"mesh":1,"name":"NO CODE"},{"children":[31],"matrix":[1.0,0.0,0.0,0.0,0.0,1.0,0.0,0.0,0.0,0.0,1.0,0.0,0.0,0.0,0.0,1.0],"name":"*A26"},{"matrix":[1.0,0.0,0.0,0.0,0.0,1.0,0.0,0.0,0.0,0.0,1.0,0.0,0.0,0.0,0.0,1.0],"mesh":2,"name":"NO CODE"},{"children":[33],"matrix":[1.0,0.0,0.0,0.0,0.0,1.0,0.0,0.0,0.0,0.0,1.0,0.0,0.0,0.0,0.0,1.0],"name":"*A27"},{"matrix":[1.0,0.0,0.0,0.0,0.0,1.0,0.0,0.0,0.0,0.0,1.0,0.0,0.0,0.0,0.0,1.0],"mesh":3,"name":"NO CODE"},{"matrix":[1.0,0.0,0.0,0.0,0.0,1.0,0.0,0.0,0.0,0.0,1.0,0.0,0.0,0.0,0.0,1.0],"name":""},{"children":[36],"matrix":[1.0,0.0,0.0,0.0,0.0,1.0,0.0,0.0,0.0,0.0,1.0,0.0,0.0,0.0,0.0,1.0],"name":"*A29"},{"matrix":[1.0,0.0,0.0,0.0,0.0,1.0,0.0,0.0,0.0,0.0,1.0,0.0,0.0,0.0,0.0,1.0],"mesh":4,"name":"1009870 $1009888"},{"matrix":[1.0,0.0,0.0,0.0,0.0,1.0,0.0,0.0,0.0,0.0,1.0,0.0,0.0,0.0,0.0,1.0],"name":""},{"children":[39],"matrix":[1.0,0.0,0.0,0.0,0.0,1.0,0.0,0.0,0.0,0.0,1.0,0.0,0.0,0.0,0.0,1.0],"name":"*A2"},{"matrix":[1.0,0.0,0.0,0.0,0.0,1.0,0.0,0.0,0.0,0.0,1.0,0.0,0.0,0.0,0.0,1.0],"mesh":5,"name":"1009847"},{"children":[41],"matrix":[1.0,0.0,0.0,0.0,0.0,1.0,0.0,0.0,0.0,0.0,1.0,0.0,0.0,0.0,0.0,1.0],"name":"*A3"},{"matrix":[1.0,0.0,0.0,0.0,0.0,1.0,0.0,0.0,0.0,0.0,1.0,0.0,0.0,0.0,0.0,1.0],"mesh":6,"name":"1059869"},{"matrix":[1.0,0.0,0.0,0.0,0.0,1.0,0.0,0.0,0.0,0.0,1.0,0.0,0.0,0.0,0.0,1.0],"name":""},{"matrix":[1.0,0.0,0.0,0.0,0.0,1.0,0.0,0.0,0.0,0.0,1.0,0.0,0.0,0.0,0.0,1.0],"name":""},{"matrix":[1.0,0.0,0.0,0.0,0.0,1.0,0.0,0.0,0.0,0.0,1.0,0.0,0.0,0.0,0.0,1.0],"name":""},{"children":[46],"matrix":[1.0,0.0,0.0,0.0,0.0,1.0,0.0,0.0,0.0,0.0,1.0,0.0,0.0,0.0,0.0,1.0],"name":"*A7"},{"children":[47,48],"matrix":[1.0,0.0,0.0,0.0,0.0,1.0,0.0,0.0,0.0,0.0,1.0,0.0,0.0,0.0,0.0,1.0],"mesh":7,"name":"1035558"},{"matrix":[1.0,0.0,0.0,0.0,0.0,1.0,0.0,0.0,0.0,0.0,1.0,0.0,0.0,0.0,0.0,1.0],"name":"curve 0"},{"matrix":[1.0,0.0,0.0,0.0,0.0,1.0,0.0,0.0,0.0,0.0,1.0,0.0,0.0,0.0,0.0,1.0],"name":"curve 1"},{"children":[50],"matrix":[1.0,0.0,0.0,0.0,0.0,1.0,0.0,0.0,0.0,0.0,1.0,0.0,0.0,0.0,0.0,1.0],"name":"*A8"},{"children":[51,52],"matrix":[1.0,0.0,0.0,0.0,0.0,1.0,0.0,0.0,0.0,0.0,1.0,0.0,0.0,0.0,0.0,1.0],"mesh":8,"name":"1035558"},{"matrix":[1.0,0.0,0.0,0.0,0.0,1.0,0.0,0.0,0.0,0.0,1.0,0.0,0.0,0.0,0.0,1.0],"name":"curve 0"},{"matrix":[1.0,0.0,0.0,0.0,0.0,1.0,0.0,0.0,0.0,0.0,1.0,0.0,0.0,0.0,0.0,1.0],"name":"curve 1"},{"children":[54],"matrix":[1.0,0.0,0.0,0.0,0.0,1.0,0.0,0.0,0.0,0.0,1.0,0.0,0.0,0.0,0.0,1.0],"name":"*A9"},{"children":[55,56],"matrix":[1.0,0.0,0.0,0.0,0.0,1.0,0.0,0.0,0.0,0.0,1.0,0.0,0.0,0.0,0.0,1.0],"mesh":9,"name":"1035558"},{"matrix":[1.0,0.0,0.0,0.0,0.0,1.0,0.0,0.0,0.0,0.0,1.0,0.0,0.0,0.0,0.0,1.0],"name":"curve 0"},{"matrix":[1.0,0.0,0.0,0.0,0.0,1.0,0.0,0.0,0.0,0.0,1.0,0.0,0.0,0.0,0.0,1.0],"name":"curve 1"},{"children":[58],"matrix":[1.0,0.0,0.0,0.0,0.0,1.0,0.0,0.0,0.0,0.0,1.0,0.0,0.0,0.0,0.0,1.0],"name":"*A10"},{"children":[59,60],"matrix":[1.0,0.0,0.0,0.0,0.0,1.0,0.0,0.0,0.0,0.0,1.0,0.0,0.0,0.0,0.0,1.0],"mesh":10,"name":"1035558"},{"matrix":[1.0,0.0,0.0,0.0,0.0,1.0,0.0,0.0,0.0,0.0,1.0,0.0,0.0,0.0,0.0,1.0],"name":"curve 0"},{"matrix":[1.0,0.0,0.0,0.0,0.0,1.0,0.0,0.0,0.0,0.0,1.0,0.0,0.0,0.0,0.0,1.0],"name":"curve 1"},{"children":[62],"matrix":[1.0,0.0,0.0,0.0,0.0,1.0,0.0,0.0,0.0,0.0,1.0,0.0,0.0,0.0,0.0,1.0],"name":"*A11"},{"matrix":[1.0,0.0,0.0,0.0,0.0,1.0,0.0,0.0,0.0,0.0,1.0,0.0,0.0,0.0,0.0,1.0],"mesh":11,"name":"1032524"},{"children":[64],"matrix":[1.0,0.0,0.0,0.0,0.0,1.0,0.0,0.0,0.0,0.0,1.0,0.0,0.0,0.0,0.0,1.0],"name":"*A13"},{"matrix":[1.0,0.0,0.0,0.0,0.0,1.0,0.0,0.0,0.0,0.0,1.0,0.0,0.0,0.0,0.0,1.0],"mesh":12,"name":"1032524"},{"children":[66],"matrix":[1.0,0.0,0.0,0.0,0.0,1.0,0.0,0.0,0.0,0.0,1.0,0.0,0.0,0.0,0.0,1.0],"name":"*A14"},{"matrix":[1.0,0.0,0.0,0.0,0.0,1.0,0.0,0.0,0.0,0.0,1.0,0.0,0.0,0.0,0.0,1.0],"mesh":13,"name":"1032524"},{"children":[68],"matrix":[1.0,0.0,0.0,0.0,0.0,1.0,0.0,0.0,0.0,0.0,1.0,0.0,0.0,0.0,0.0,1.0],"name":"*A15"},{"matrix":[1.0,0.0,0.0,0.0,0.0,1.0,0.0,0.0,0.0,0.0,1.0,0.0,0.0,0.0,0.0,1.0],"mesh":14,"name":"1032524"},{"children":[70],"matrix":[1.0,0.0,0.0,0.0,0.0,1.0,0.0,0.0,0.0,0.0,1.0,0.0,0.0,0.0,0.0,1.0],"name":"*A16"},{"matrix":[1.0,0.0,0.0,0.0,0.0,1.0,0.0,0.0,0.0,0.0,1.0,0.0,0.0,0.0,0.0,1.0],"mesh":15,"name":"1032524"},{"children":[72],"matrix":[1.0,0.0,0.0,0.0,0.0,1.0,0.0,0.0,0.0,0.0,1.0,0.0,0.0,0.0,0.0,1.0],"name":"*A17"},{"matrix":[1.0,0.0,0.0,0.0,0.0,1.0,0.0,0.0,0.0,0.0,1.0,0.0,0.0,0.0,0.0,1.0],"mesh":16,"name":"1032524"},{"matrix":[1.0,0.0,0.0,0.0,0.0,1.0,0.0,0.0,0.0,0.0,1.0,0.0,0.0,0.0,0.0,1.0],"name":""},{"matrix":[1.0,0.0,0.0,0.0,0.0,1.0,0.0,0.0,0.0,0.0,1.0,0.0,0.0,0.0,0.0,1.0],"name":""},{"matrix":[1.0,0.0,0.0,0.0,0.0,1.0,0.0,0.0,0.0,0.0,1.0,0.0,0.0,0.0,0.0,1.0],"name":""},{"matrix":[1.0,0.0,0.0,0.0,0.0,1.0,0.0,0.0,0.0,0.0,1.0,0.0,0.0,0.0,0.0,1.0],"name":""},{"matrix":[1.0,0.0,0.0,0.0,0.0,1.0,0.0,0.0,0.0,0.0,1.0,0.0,0.0,0.0,0.0,1.0],"name":""}],"scene":0,"scenes":[{"nodes":[0,1,2,3,4,5,22,23]}]}